<mxfile host="app.diagrams.net" modified="2023-07-17T03:40:11.109Z" agent="Mozilla/5.0 (Windows NT 10.0; Win64; x64) AppleWebKit/537.36 (KHTML, like Gecko) Chrome/114.0.0.0 Safari/537.36" etag="ZAEKUpZ6g_c5ZcTzLW07" version="21.6.2" type="device" pages="3">
  <diagram id="C5RBs43oDa-KdzZeNtuy" name="Page-1">
    <mxGraphModel dx="1434" dy="796" grid="1" gridSize="10" guides="1" tooltips="1" connect="1" arrows="1" fold="1" page="1" pageScale="1" pageWidth="827" pageHeight="1169" math="0" shadow="0">
      <root>
        <mxCell id="WIyWlLk6GJQsqaUBKTNV-0" />
        <mxCell id="WIyWlLk6GJQsqaUBKTNV-1" parent="WIyWlLk6GJQsqaUBKTNV-0" />
        <mxCell id="MIBesyJyM0pAzpOsuZl7-2" value="" style="edgeStyle=orthogonalEdgeStyle;rounded=0;orthogonalLoop=1;jettySize=auto;html=1;" edge="1" parent="WIyWlLk6GJQsqaUBKTNV-1" source="MIBesyJyM0pAzpOsuZl7-0" target="MIBesyJyM0pAzpOsuZl7-1">
          <mxGeometry relative="1" as="geometry" />
        </mxCell>
        <mxCell id="MIBesyJyM0pAzpOsuZl7-0" value="start" style="ellipse;whiteSpace=wrap;html=1;" vertex="1" parent="WIyWlLk6GJQsqaUBKTNV-1">
          <mxGeometry x="350" y="20" width="120" height="80" as="geometry" />
        </mxCell>
        <mxCell id="MIBesyJyM0pAzpOsuZl7-4" style="edgeStyle=orthogonalEdgeStyle;rounded=0;orthogonalLoop=1;jettySize=auto;html=1;exitX=0.5;exitY=1;exitDx=0;exitDy=0;entryX=0.5;entryY=0;entryDx=0;entryDy=0;" edge="1" parent="WIyWlLk6GJQsqaUBKTNV-1" source="MIBesyJyM0pAzpOsuZl7-1" target="MIBesyJyM0pAzpOsuZl7-3">
          <mxGeometry relative="1" as="geometry" />
        </mxCell>
        <mxCell id="MIBesyJyM0pAzpOsuZl7-1" value="input user option for what program to use" style="whiteSpace=wrap;html=1;" vertex="1" parent="WIyWlLk6GJQsqaUBKTNV-1">
          <mxGeometry x="350" y="190" width="120" height="60" as="geometry" />
        </mxCell>
        <mxCell id="MIBesyJyM0pAzpOsuZl7-6" value="N" style="edgeStyle=orthogonalEdgeStyle;rounded=0;orthogonalLoop=1;jettySize=auto;html=1;" edge="1" parent="WIyWlLk6GJQsqaUBKTNV-1" source="MIBesyJyM0pAzpOsuZl7-3" target="MIBesyJyM0pAzpOsuZl7-5">
          <mxGeometry relative="1" as="geometry" />
        </mxCell>
        <mxCell id="MIBesyJyM0pAzpOsuZl7-14" style="edgeStyle=orthogonalEdgeStyle;rounded=0;orthogonalLoop=1;jettySize=auto;html=1;exitX=1;exitY=0.5;exitDx=0;exitDy=0;entryX=0;entryY=0.5;entryDx=0;entryDy=0;" edge="1" parent="WIyWlLk6GJQsqaUBKTNV-1" source="MIBesyJyM0pAzpOsuZl7-3" target="MIBesyJyM0pAzpOsuZl7-13">
          <mxGeometry relative="1" as="geometry" />
        </mxCell>
        <mxCell id="qMCuVRvjrG7JOWc2yTg2-1" value="Y" style="edgeLabel;html=1;align=center;verticalAlign=middle;resizable=0;points=[];" vertex="1" connectable="0" parent="MIBesyJyM0pAzpOsuZl7-14">
          <mxGeometry x="-0.52" y="4" relative="1" as="geometry">
            <mxPoint as="offset" />
          </mxGeometry>
        </mxCell>
        <mxCell id="MIBesyJyM0pAzpOsuZl7-3" value="case 1" style="rhombus;whiteSpace=wrap;html=1;" vertex="1" parent="WIyWlLk6GJQsqaUBKTNV-1">
          <mxGeometry x="370" y="280" width="80" height="80" as="geometry" />
        </mxCell>
        <mxCell id="MIBesyJyM0pAzpOsuZl7-8" value="N" style="edgeStyle=orthogonalEdgeStyle;rounded=0;orthogonalLoop=1;jettySize=auto;html=1;" edge="1" parent="WIyWlLk6GJQsqaUBKTNV-1" source="MIBesyJyM0pAzpOsuZl7-5" target="MIBesyJyM0pAzpOsuZl7-7">
          <mxGeometry relative="1" as="geometry" />
        </mxCell>
        <mxCell id="MIBesyJyM0pAzpOsuZl7-16" value="Y" style="edgeStyle=orthogonalEdgeStyle;rounded=0;orthogonalLoop=1;jettySize=auto;html=1;exitX=1;exitY=0.5;exitDx=0;exitDy=0;entryX=-0.05;entryY=0.5;entryDx=0;entryDy=0;entryPerimeter=0;" edge="1" parent="WIyWlLk6GJQsqaUBKTNV-1" source="MIBesyJyM0pAzpOsuZl7-5" target="MIBesyJyM0pAzpOsuZl7-15">
          <mxGeometry relative="1" as="geometry" />
        </mxCell>
        <mxCell id="qMCuVRvjrG7JOWc2yTg2-0" value="y" style="edgeLabel;html=1;align=center;verticalAlign=middle;resizable=0;points=[];" vertex="1" connectable="0" parent="MIBesyJyM0pAzpOsuZl7-16">
          <mxGeometry x="-0.3636" y="-1" relative="1" as="geometry">
            <mxPoint as="offset" />
          </mxGeometry>
        </mxCell>
        <mxCell id="MIBesyJyM0pAzpOsuZl7-5" value="case 2" style="rhombus;whiteSpace=wrap;html=1;" vertex="1" parent="WIyWlLk6GJQsqaUBKTNV-1">
          <mxGeometry x="370" y="440" width="80" height="80" as="geometry" />
        </mxCell>
        <mxCell id="MIBesyJyM0pAzpOsuZl7-10" value="N" style="edgeStyle=orthogonalEdgeStyle;rounded=0;orthogonalLoop=1;jettySize=auto;html=1;" edge="1" parent="WIyWlLk6GJQsqaUBKTNV-1" source="MIBesyJyM0pAzpOsuZl7-7" target="MIBesyJyM0pAzpOsuZl7-9">
          <mxGeometry relative="1" as="geometry" />
        </mxCell>
        <mxCell id="MIBesyJyM0pAzpOsuZl7-7" value="case 3" style="rhombus;whiteSpace=wrap;html=1;" vertex="1" parent="WIyWlLk6GJQsqaUBKTNV-1">
          <mxGeometry x="370" y="600" width="80" height="80" as="geometry" />
        </mxCell>
        <mxCell id="MIBesyJyM0pAzpOsuZl7-12" value="N" style="edgeStyle=orthogonalEdgeStyle;rounded=0;orthogonalLoop=1;jettySize=auto;html=1;exitX=0.5;exitY=1;exitDx=0;exitDy=0;entryX=0.5;entryY=0;entryDx=0;entryDy=0;" edge="1" parent="WIyWlLk6GJQsqaUBKTNV-1" source="MIBesyJyM0pAzpOsuZl7-9" target="MIBesyJyM0pAzpOsuZl7-11">
          <mxGeometry relative="1" as="geometry" />
        </mxCell>
        <mxCell id="MIBesyJyM0pAzpOsuZl7-9" value="default" style="rhombus;whiteSpace=wrap;html=1;" vertex="1" parent="WIyWlLk6GJQsqaUBKTNV-1">
          <mxGeometry x="370" y="760" width="80" height="80" as="geometry" />
        </mxCell>
        <mxCell id="MIBesyJyM0pAzpOsuZl7-11" value="end program" style="ellipse;whiteSpace=wrap;html=1;" vertex="1" parent="WIyWlLk6GJQsqaUBKTNV-1">
          <mxGeometry x="350" y="880" width="120" height="80" as="geometry" />
        </mxCell>
        <mxCell id="MIBesyJyM0pAzpOsuZl7-13" value="GPACalc()" style="shape=process;whiteSpace=wrap;html=1;backgroundOutline=1;" vertex="1" parent="WIyWlLk6GJQsqaUBKTNV-1">
          <mxGeometry x="500" y="290" width="120" height="60" as="geometry" />
        </mxCell>
        <mxCell id="MIBesyJyM0pAzpOsuZl7-15" value="Gradingscheme()" style="shape=process;whiteSpace=wrap;html=1;backgroundOutline=1;" vertex="1" parent="WIyWlLk6GJQsqaUBKTNV-1">
          <mxGeometry x="500" y="450" width="120" height="60" as="geometry" />
        </mxCell>
      </root>
    </mxGraphModel>
  </diagram>
  <diagram id="c0zm1AjDyDOsVGS7HCRY" name="Page-2">
    <mxGraphModel dx="1434" dy="796" grid="1" gridSize="10" guides="1" tooltips="1" connect="1" arrows="1" fold="1" page="1" pageScale="1" pageWidth="850" pageHeight="1100" math="0" shadow="0">
      <root>
        <mxCell id="0" />
        <mxCell id="1" parent="0" />
        <mxCell id="b-TxMJduMKno6-Z4dEuI-1" value="GPACalc" style="ellipse;whiteSpace=wrap;html=1;" vertex="1" parent="1">
          <mxGeometry x="350" y="50" width="120" height="80" as="geometry" />
        </mxCell>
      </root>
    </mxGraphModel>
  </diagram>
  <diagram id="2waVf4u5iXAJdaMfsXiG" name="Page-3">
    <mxGraphModel dx="1434" dy="796" grid="1" gridSize="10" guides="1" tooltips="1" connect="1" arrows="1" fold="1" page="1" pageScale="1" pageWidth="850" pageHeight="1100" math="0" shadow="0">
      <root>
        <mxCell id="0" />
        <mxCell id="1" parent="0" />
        <mxCell id="aahJKG_kTmySP2GvMEAo-1" value="GradingScheme" style="ellipse;whiteSpace=wrap;html=1;" vertex="1" parent="1">
          <mxGeometry x="350" y="50" width="120" height="80" as="geometry" />
        </mxCell>
      </root>
    </mxGraphModel>
  </diagram>
</mxfile>
